# xmcd
#
# Track frame offsets:
#	150
#	13666
#	27058
#	40238
#	52843
#	67597
#	81287
#	94770
#	107579
#	120775
#	131453
#	143086
#
# Disc length: 2055 seconds
# Revision: 0
# Processed by: cddbd v1.5.2PL0 Copyright (c) Steve Scherf et al.
# Submitted via: dBpowerAMP V12.0
#
DISCID=8508050c
DTITLE=Etta James - Icon
DYEAR=2010
DGENRE=Blues
TTITLE0=At Last
TTITLE1=If I Can't Have You
TTITLE2=All I Could Do is Cry
TTITLE3=Something's Got a Hold On Me
TTITLE4=A Sunday Kind of Love
TTITLE5=My Dearest Darling
TTITLE6=Trust in Me
TTITLE7=Stop the Wedding
TTITLE8=Pushover
TTITLE9=Tell Mama
TTITLE10=I'd Rather Go Blind
TTITLE11=Security
EXTD=
EXTT0=
EXTT1=
EXTT2=
EXTT3=
EXTT4=
EXTT5=
EXTT6=
EXTT7=
EXTT8=
EXTT9=
EXTT10=
EXTT11=
PLAYORDER=
